<svg width="40" height="40" viewBox="0 0 40 40" fill="none" xmlns="http://www.w3.org/2000/svg">
<g clip-path="url(#clip0_4_610)">
<path d="M3.33336 18.3334H21.6667C23.5076 18.3334 25 16.8409 25 15V3.33336C25 1.49242 23.5076 0 21.6666 0H3.33336C1.49242 0 0 1.49242 0 3.33336V15C0 16.8409 1.49242 18.3334 3.33336 18.3334Z" fill="#6F95DD"/>
<path d="M39.43 1.47C38.8105 0.551094 37.7748 0.00015625 36.6666 0H31.6666C29.8257 0 28.3333 1.49242 28.3333 3.33336V15C28.3333 16.8409 29.8256 18.3334 31.6666 18.3334H36.6666C38.5076 18.3334 40 16.8409 40 15V3.33336C40.0011 2.66914 39.8025 2.01992 39.43 1.47Z" fill="#6F95DD"/>
<path d="M10.1966 22.2366C9.64672 21.8641 8.9975 21.6655 8.33328 21.6666H3.33328C1.49242 21.6666 0 23.1591 0 25V36.6666C0 38.5076 1.49242 40 3.33336 40H8.33336C10.1743 40 11.6667 38.5076 11.6667 36.6666V25C11.6665 23.8918 11.1155 22.8562 10.1966 22.2366Z" fill="#6F95DD"/>
<path d="M38.53 22.2366C37.9801 21.8641 37.3309 21.6655 36.6666 21.6666H18.3334C16.4924 21.6666 15 23.1591 15 25V36.6666C15 38.5076 16.4924 40 18.3334 40H36.6667C38.5077 40 40 38.5076 40 36.6666V25C39.9998 23.8918 39.4489 22.8562 38.53 22.2366Z" fill="#6F95DD"/>
</g>
<defs>
<clipPath id="clip0_4_610">
<rect width="40" height="40" fill="white"/>
</clipPath>
</defs>
</svg>
